# xmcd CD database file
# Copyright (C) 1997 Ti Kan
# 
# Track frame offsets:
#     150
#     22680
#     36420
#     50213
#     59593
#     76255
#     76810
#     82213
#     102295
#     104255
#     119848
#     127418
#     140453
#     143660
#     158855
#     166478
#     184990
#     207368
#     222843
# 
# Disc length: 3346 seconds
# 
# Revision: 1
# Processed by: cddbd v1.4b41PL1 Copyright (c) Steve Scherf et al.
# Submitted via: DiscPlay 4.0.4
# 
DISCID=1d0d1013
DTITLE=95 South - Quad City Knock
DYEAR=1900
DGENRE=
TTITLE0=Hump Wit' It
TTITLE1=Booty Hop
TTITLE2=Whoot, There It Is
TTITLE3=Bring Out da Ho's
TTITLE4=Do It Baby
TTITLE5=Th Is a Test
TTITLE6=60 Seconds
TTITLE7=Let's Go to My Room
TTITLE8=Shouts Out
TTITLE9=One Time
TTITLE10=K-Knock in da House
TTITLE11=We Got da Bass
TTITLE12=Shake Rattle n' Roll
TTITLE13=Booty Man Battle
TTITLE14=Da Kinda Bass
TTITLE15=95 South In da House
TTITLE16=So Clear
TTITLE17=Ghetto Style
TTITLE18=Extra Track
EXTD=
EXTT0=
EXTT1=
EXTT2=
EXTT3=
EXTT4=
EXTT5=
EXTT6=
EXTT7=
EXTT8=
EXTT9=
EXTT10=
EXTT11=
EXTT12=
EXTT13=
EXTT14=
EXTT15=
EXTT16=
EXTT17=
EXTT18=
PLAYORDER=
